<svg width="17" height="17" viewBox="0 0 17 17" fill="none" xmlns="http://www.w3.org/2000/svg">
<circle cx="8.5" cy="8.5" r="8" fill="#273A60" stroke="white"/>
<path d="M6.2641 10.2772L7.50059 9.95177C7.55637 10.2493 7.65863 10.4662 7.80738 10.6025C7.95923 10.7389 8.16841 10.8071 8.43492 10.8071C8.84398 10.8071 9.13219 10.6723 9.29953 10.4027C9.43589 10.1826 9.50406 9.84795 9.50406 9.3986C9.50406 8.96785 9.4049 8.64246 9.20656 8.42243C9.03922 8.23649 8.81454 8.14353 8.53254 8.14353C8.13897 8.14353 7.82753 8.33411 7.5982 8.71528H6.45469L6.83586 5.09415H10.3408V6.23767H7.85387L7.70977 7.53458H7.72836C8.00107 7.24018 8.33111 7.09298 8.71848 7.09298C9.40645 7.09298 9.93017 7.33935 10.2896 7.83208C10.5902 8.24424 10.7405 8.77571 10.7405 9.42649C10.7405 11.0442 9.97201 11.853 8.43492 11.853C7.72836 11.853 7.18294 11.6748 6.79867 11.3184C6.51667 11.055 6.33848 10.7079 6.2641 10.2772Z" fill="white"/>
</svg>
