<svg width="17" height="17" viewBox="0 0 17 17" fill="none" xmlns="http://www.w3.org/2000/svg">
<circle cx="8.5" cy="8.5" r="8" fill="#273A60" stroke="white"/>
<path d="M10.787 9.85415C10.787 10.5483 10.5562 11.0689 10.0944 11.416C9.70395 11.7073 9.17402 11.853 8.50465 11.853C7.77329 11.853 7.20154 11.6624 6.78937 11.2812C6.4082 10.9279 6.21762 10.4522 6.21762 9.85415C6.21762 9.1135 6.53526 8.57738 7.17055 8.24579V8.2272C6.7243 7.98548 6.50117 7.51289 6.50117 6.80942C6.50117 6.16174 6.70105 5.68605 7.10082 5.38235C7.43551 5.12824 7.90345 5.00118 8.50465 5.00118C9.8372 5.00118 10.5035 5.60393 10.5035 6.80942C10.5035 7.50669 10.2804 7.97928 9.8341 8.2272V8.24579C10.4694 8.57738 10.787 9.1135 10.787 9.85415ZM7.73766 6.85591C7.73766 7.39513 7.99332 7.66474 8.50465 7.66474C8.74947 7.66474 8.93695 7.59501 9.06711 7.45556C9.20036 7.3161 9.26699 7.11622 9.26699 6.85591C9.26699 6.31669 9.01288 6.04708 8.50465 6.04708C7.99332 6.04708 7.73766 6.31669 7.73766 6.85591ZM7.5982 9.80767C7.5982 10.1578 7.68962 10.4182 7.87246 10.5886C8.02741 10.7343 8.23814 10.8071 8.50465 10.8071C8.80835 10.8071 9.03922 10.7126 9.19727 10.5235C9.33672 10.3531 9.40645 10.1145 9.40645 9.80767C9.40645 9.45748 9.31503 9.19717 9.13219 9.02673C8.97724 8.88108 8.76806 8.80825 8.50465 8.80825C8.19785 8.80825 7.96543 8.90277 7.80738 9.09181C7.66793 9.26225 7.5982 9.50087 7.5982 9.80767Z" fill="white"/>
</svg>
