<svg width="17" height="17" viewBox="0 0 17 17" fill="none" xmlns="http://www.w3.org/2000/svg">
<circle cx="8.5" cy="8.5" r="8" fill="#273A60" stroke="white"/>
<path d="M8.5093 5.00118C9.18797 5.00118 9.73184 5.19332 10.1409 5.57759C10.5066 5.92157 10.6894 6.36317 10.6894 6.90239C10.6894 7.34244 10.6057 7.73756 10.4384 8.08774C10.2742 8.43483 9.9968 8.79895 9.60633 9.18013L8.11883 10.6165H10.5964V11.76H6.40355V10.7513L8.52789 8.60837C8.82229 8.31087 9.03302 8.03041 9.16008 7.767C9.29023 7.50049 9.35531 7.21384 9.35531 6.90704C9.35531 6.67462 9.27319 6.48713 9.10895 6.34458C8.9571 6.21132 8.75721 6.1447 8.5093 6.1447C7.98247 6.1447 7.66173 6.49333 7.54707 7.1906L6.31059 6.8652C6.5771 5.62252 7.31 5.00118 8.5093 5.00118Z" fill="white"/>
</svg>
