<svg width="17" height="17" viewBox="0 0 17 17" fill="none" xmlns="http://www.w3.org/2000/svg">
<circle cx="8.5" cy="8.5" r="8" fill="#273A60" stroke="white"/>
<path d="M10.787 9.80767C10.787 10.5421 10.5329 11.0875 10.0247 11.4439C9.63112 11.7166 9.12289 11.853 8.5 11.853C7.84302 11.853 7.30845 11.6918 6.89629 11.3695C6.49962 11.0565 6.2734 10.6289 6.21762 10.0866L7.4541 9.76118C7.50059 10.0618 7.63074 10.3004 7.84457 10.477C8.03051 10.632 8.24898 10.7095 8.5 10.7095C8.7913 10.7095 9.02217 10.6103 9.19262 10.412C9.33517 10.2477 9.40645 10.0463 9.40645 9.80767C9.40645 9.14139 9.1043 8.80825 8.5 8.80825H8.08164V7.66474H8.40703C8.70143 7.66474 8.91681 7.60431 9.05316 7.48345C9.19262 7.35949 9.26234 7.16735 9.26234 6.90704C9.26234 6.66222 9.19572 6.47474 9.06246 6.34458C8.9323 6.21132 8.74482 6.1447 8.5 6.1447C7.94529 6.1447 7.62454 6.4298 7.53777 7.00001L6.31059 6.67462C6.52751 5.55899 7.25732 5.00118 8.5 5.00118C9.14768 5.00118 9.66056 5.17007 10.0386 5.50786C10.4105 5.84255 10.5964 6.30739 10.5964 6.90239C10.5964 7.1751 10.5267 7.43231 10.3873 7.67403C10.2478 7.91575 10.0634 8.10014 9.8341 8.2272V8.24579C10.4694 8.58668 10.787 9.1073 10.787 9.80767Z" fill="white"/>
</svg>
