<svg width="17" height="17" viewBox="0 0 17 17" fill="none" xmlns="http://www.w3.org/2000/svg">
<circle cx="8.5" cy="8.5" r="8" fill="#273A60" stroke="white"/>
<path d="M7.5982 8.01802H7.6168C7.9174 7.70812 8.28927 7.55317 8.73242 7.55317C9.36771 7.55317 9.87749 7.7732 10.2618 8.21325C10.581 8.57893 10.7405 9.01898 10.7405 9.53341C10.7405 10.2524 10.5593 10.8148 10.1967 11.2208C9.81861 11.6422 9.26389 11.853 8.53254 11.853C7.63074 11.853 7.0094 11.5276 6.66852 10.8768C6.39891 10.3593 6.2641 9.5427 6.2641 8.42708C6.2641 7.13481 6.44849 6.23457 6.81727 5.72634C7.17055 5.2429 7.7485 5.00118 8.55113 5.00118C9.22051 5.00118 9.72564 5.14373 10.0665 5.42884C10.3361 5.65816 10.5376 6.00989 10.6708 6.48403L9.44363 6.80942C9.38785 6.56151 9.29333 6.38951 9.16008 6.29345C9.02992 6.19428 8.82694 6.1447 8.55113 6.1447C8.20095 6.1447 7.95613 6.28415 7.81668 6.56306C7.67103 6.85126 7.5982 7.33625 7.5982 8.01802ZM7.57031 9.65427C7.57031 10.023 7.66948 10.2989 7.86781 10.4817C8.03206 10.6335 8.25673 10.7095 8.54184 10.7095C8.87033 10.7095 9.11824 10.6087 9.28559 10.4073C9.43743 10.2276 9.51336 9.97656 9.51336 9.65427C9.51336 9.28549 9.41419 9.00813 9.21586 8.8222C9.05161 8.66725 8.82694 8.58978 8.54184 8.58978C8.21645 8.58978 7.96853 8.69204 7.79809 8.89657C7.64624 9.07941 7.57031 9.33198 7.57031 9.65427Z" fill="white"/>
</svg>
