<?xml version="1.0" encoding="UTF-8"?>
<!-- This file is generated by npm run build:icons -->
<svg xmlns="http://www.w3.org/2000/svg" xmlns:xlink="http://www.w3.org/1999/xlink" width="0" height="0">
<defs>
<symbol viewBox="0 0 12 9" fill="none" id="chevron-down-filled">
  <path d="M6 9L0.803847 -2.51245e-08L11.1962 8.834e-07L6 9Z" fill="currentColor" ></path>
</symbol>
<symbol viewBox="0 0 24 24" fill="none" stroke="currentColor" stroke-width="2" stroke-linecap="round" stroke-linejoin="round" id="chevron-down">
  <path d="m6 9 6 6 6-6" ></path>
</symbol>
<symbol viewBox="0 0 24 24" fill="none" stroke="currentColor" stroke-width="2" stroke-linecap="round" stroke-linejoin="round" class="lucide lucide-chevron-left" id="chevron-left">
  <path d="m15 18-6-6 6-6" ></path>
</symbol>
<symbol viewBox="0 0 24 24" fill="none" stroke="currentColor" stroke-width="2" stroke-linecap="round" stroke-linejoin="round" class="lucide lucide-chevron-right" id="chevron-right">
  <path d="m9 18 6-6-6-6" ></path>
</symbol>
<symbol viewBox="0 0 17 17" fill="none" id="number_1">
<circle cx="8.5" cy="8.5" r="8" fill="#273A60" stroke="white"></circle>
<path d="M8.26293 11.76V6.58165H8.24434L7.40297 7.00001L6.92883 6.03778L8.6441 5.09415H9.49941V11.76H8.26293Z" fill="white"></path>
</symbol>
<symbol viewBox="0 0 17 17" fill="none" id="number_2">
<circle cx="8.5" cy="8.5" r="8" fill="#273A60" stroke="white"></circle>
<path d="M8.5093 5.00118C9.18797 5.00118 9.73184 5.19332 10.1409 5.57759C10.5066 5.92157 10.6894 6.36317 10.6894 6.90239C10.6894 7.34244 10.6057 7.73756 10.4384 8.08774C10.2742 8.43483 9.9968 8.79895 9.60633 9.18013L8.11883 10.6165H10.5964V11.76H6.40355V10.7513L8.52789 8.60837C8.82229 8.31087 9.03302 8.03041 9.16008 7.767C9.29023 7.50049 9.35531 7.21384 9.35531 6.90704C9.35531 6.67462 9.27319 6.48713 9.10895 6.34458C8.9571 6.21132 8.75721 6.1447 8.5093 6.1447C7.98247 6.1447 7.66173 6.49333 7.54707 7.1906L6.31059 6.8652C6.5771 5.62252 7.31 5.00118 8.5093 5.00118Z" fill="white"></path>
</symbol>
<symbol viewBox="0 0 17 17" fill="none" id="number_3">
<circle cx="8.5" cy="8.5" r="8" fill="#273A60" stroke="white"></circle>
<path d="M10.787 9.80767C10.787 10.5421 10.5329 11.0875 10.0247 11.4439C9.63112 11.7166 9.12289 11.853 8.5 11.853C7.84302 11.853 7.30845 11.6918 6.89629 11.3695C6.49962 11.0565 6.2734 10.6289 6.21762 10.0866L7.4541 9.76118C7.50059 10.0618 7.63074 10.3004 7.84457 10.477C8.03051 10.632 8.24898 10.7095 8.5 10.7095C8.7913 10.7095 9.02217 10.6103 9.19262 10.412C9.33517 10.2477 9.40645 10.0463 9.40645 9.80767C9.40645 9.14139 9.1043 8.80825 8.5 8.80825H8.08164V7.66474H8.40703C8.70143 7.66474 8.91681 7.60431 9.05316 7.48345C9.19262 7.35949 9.26234 7.16735 9.26234 6.90704C9.26234 6.66222 9.19572 6.47474 9.06246 6.34458C8.9323 6.21132 8.74482 6.1447 8.5 6.1447C7.94529 6.1447 7.62454 6.4298 7.53777 7.00001L6.31059 6.67462C6.52751 5.55899 7.25732 5.00118 8.5 5.00118C9.14768 5.00118 9.66056 5.17007 10.0386 5.50786C10.4105 5.84255 10.5964 6.30739 10.5964 6.90239C10.5964 7.1751 10.5267 7.43231 10.3873 7.67403C10.2478 7.91575 10.0634 8.10014 9.8341 8.2272V8.24579C10.4694 8.58668 10.787 9.1073 10.787 9.80767Z" fill="white"></path>
</symbol>
<symbol viewBox="0 0 18 17" fill="none" id="number_4">
<circle cx="8.6875" cy="8.5" r="8" fill="#273A60" stroke="white"></circle>
<path d="M6.40512 9.05462L8.9757 5.09415H10.4028V9.2452H11.1651V10.3887H10.4028V11.76H9.16629V10.3887H6.40512V9.05462ZM7.55793 9.2452H9.16629V6.77688H9.1477L7.55793 9.22661V9.2452Z" fill="white"></path>
</symbol>
<symbol viewBox="0 0 17 17" fill="none" id="number_5">
<circle cx="8.5" cy="8.5" r="8" fill="#273A60" stroke="white"></circle>
<path d="M6.2641 10.2772L7.50059 9.95177C7.55637 10.2493 7.65863 10.4662 7.80738 10.6025C7.95923 10.7389 8.16841 10.8071 8.43492 10.8071C8.84398 10.8071 9.13219 10.6723 9.29953 10.4027C9.43589 10.1826 9.50406 9.84795 9.50406 9.3986C9.50406 8.96785 9.4049 8.64246 9.20656 8.42243C9.03922 8.23649 8.81454 8.14353 8.53254 8.14353C8.13897 8.14353 7.82753 8.33411 7.5982 8.71528H6.45469L6.83586 5.09415H10.3408V6.23767H7.85387L7.70977 7.53458H7.72836C8.00107 7.24018 8.33111 7.09298 8.71848 7.09298C9.40645 7.09298 9.93017 7.33935 10.2896 7.83208C10.5902 8.24424 10.7405 8.77571 10.7405 9.42649C10.7405 11.0442 9.97201 11.853 8.43492 11.853C7.72836 11.853 7.18294 11.6748 6.79867 11.3184C6.51667 11.055 6.33848 10.7079 6.2641 10.2772Z" fill="white"></path>
</symbol>
<symbol viewBox="0 0 17 17" fill="none" id="number_6">
<circle cx="8.5" cy="8.5" r="8" fill="#273A60" stroke="white"></circle>
<path d="M7.5982 8.01802H7.6168C7.9174 7.70812 8.28927 7.55317 8.73242 7.55317C9.36771 7.55317 9.87749 7.7732 10.2618 8.21325C10.581 8.57893 10.7405 9.01898 10.7405 9.53341C10.7405 10.2524 10.5593 10.8148 10.1967 11.2208C9.81861 11.6422 9.26389 11.853 8.53254 11.853C7.63074 11.853 7.0094 11.5276 6.66852 10.8768C6.39891 10.3593 6.2641 9.5427 6.2641 8.42708C6.2641 7.13481 6.44849 6.23457 6.81727 5.72634C7.17055 5.2429 7.7485 5.00118 8.55113 5.00118C9.22051 5.00118 9.72564 5.14373 10.0665 5.42884C10.3361 5.65816 10.5376 6.00989 10.6708 6.48403L9.44363 6.80942C9.38785 6.56151 9.29333 6.38951 9.16008 6.29345C9.02992 6.19428 8.82694 6.1447 8.55113 6.1447C8.20095 6.1447 7.95613 6.28415 7.81668 6.56306C7.67103 6.85126 7.5982 7.33625 7.5982 8.01802ZM7.57031 9.65427C7.57031 10.023 7.66948 10.2989 7.86781 10.4817C8.03206 10.6335 8.25673 10.7095 8.54184 10.7095C8.87033 10.7095 9.11824 10.6087 9.28559 10.4073C9.43743 10.2276 9.51336 9.97656 9.51336 9.65427C9.51336 9.28549 9.41419 9.00813 9.21586 8.8222C9.05161 8.66725 8.82694 8.58978 8.54184 8.58978C8.21645 8.58978 7.96853 8.69204 7.79809 8.89657C7.64624 9.07941 7.57031 9.33198 7.57031 9.65427Z" fill="white"></path>
</symbol>
<symbol viewBox="0 0 17 17" fill="none" id="number_7">
<circle cx="8.5" cy="8.5" r="8" fill="#273A60" stroke="white"></circle>
<path d="M6.45469 6.23767V5.09415H10.55V6.04708L8.6441 11.76H7.31L9.21586 6.23767H6.45469Z" fill="white"></path>
</symbol>
<symbol viewBox="0 0 17 17" fill="none" id="number_8">
<circle cx="8.5" cy="8.5" r="8" fill="#273A60" stroke="white"></circle>
<path d="M10.787 9.85415C10.787 10.5483 10.5562 11.0689 10.0944 11.416C9.70395 11.7073 9.17402 11.853 8.50465 11.853C7.77329 11.853 7.20154 11.6624 6.78937 11.2812C6.4082 10.9279 6.21762 10.4522 6.21762 9.85415C6.21762 9.1135 6.53526 8.57738 7.17055 8.24579V8.2272C6.7243 7.98548 6.50117 7.51289 6.50117 6.80942C6.50117 6.16174 6.70105 5.68605 7.10082 5.38235C7.43551 5.12824 7.90345 5.00118 8.50465 5.00118C9.8372 5.00118 10.5035 5.60393 10.5035 6.80942C10.5035 7.50669 10.2804 7.97928 9.8341 8.2272V8.24579C10.4694 8.57738 10.787 9.1135 10.787 9.85415ZM7.73766 6.85591C7.73766 7.39513 7.99332 7.66474 8.50465 7.66474C8.74947 7.66474 8.93695 7.59501 9.06711 7.45556C9.20036 7.3161 9.26699 7.11622 9.26699 6.85591C9.26699 6.31669 9.01288 6.04708 8.50465 6.04708C7.99332 6.04708 7.73766 6.31669 7.73766 6.85591ZM7.5982 9.80767C7.5982 10.1578 7.68962 10.4182 7.87246 10.5886C8.02741 10.7343 8.23814 10.8071 8.50465 10.8071C8.80835 10.8071 9.03922 10.7126 9.19727 10.5235C9.33672 10.3531 9.40645 10.1145 9.40645 9.80767C9.40645 9.45748 9.31503 9.19717 9.13219 9.02673C8.97724 8.88108 8.76806 8.80825 8.50465 8.80825C8.19785 8.80825 7.96543 8.90277 7.80738 9.09181C7.66793 9.26225 7.5982 9.50087 7.5982 9.80767Z" fill="white"></path>
</symbol>
<symbol viewBox="0 0 24 24" fill="currentColor" id="plus">
  <path d="M12 2C6.486 2 2 6.486 2 12s4.486 10 10 10 10-4.486 10-10S17.514 2 12 2zm5 11h-4v4h-2v-4H7v-2h4V7h2v4h4v2z" ></path>
</symbol>
<symbol viewBox="0 0 24 24" fill="none" stroke="currentColor" stroke-width="2" stroke-linecap="round" stroke-linejoin="round" id="search">
  <circle cx="11" cy="11" r="8" ></circle>
  <path d="m21 21-4.3-4.3" ></path>
</symbol>
<symbol viewBox="0 0 24 24" fill="none" stroke="currentColor" stroke-width="2" stroke-linecap="round" stroke-linejoin="round" class="lucide lucide-x" id="x">
  <path d="M18 6 6 18" ></path>
  <path d="m6 6 12 12" ></path>
</symbol>
</defs>
</svg>
